<svg xmlns="http://www.w3.org/2000/svg" viewBox="0 0 500 500"><g id="freepik--Symbols--inject-4"><path id="freepik--Money--inject-4" d="M414.56,62a13.05,13.05,0,0,1-6.22,5.55l1.48,4.66-5,1.59-1.42-4.49a27.31,27.31,0,0,1-6.3.82,18,18,0,0,1-5.33-.65l.78-7a19.58,19.58,0,0,0,10.62-.17c3.19-1,4.53-2.32,4-3.91a2.09,2.09,0,0,0-2-1.44,26.15,26.15,0,0,0-4.79.11,44,44,0,0,1-6,.22,9.82,9.82,0,0,1-4.65-1.41,7.51,7.51,0,0,1-3.14-4.37,8.84,8.84,0,0,1,.65-7Q389,41.1,393.75,39l-1.46-4.61,5-1.6,1.43,4.54a24.88,24.88,0,0,1,4.86-.62,18,18,0,0,1,4.45.39l-.61,7a17.91,17.91,0,0,0-8.86.31,7.14,7.14,0,0,0-3.38,1.88,2.31,2.31,0,0,0-.53,2.27,2,2,0,0,0,1.9,1.33,25.23,25.23,0,0,0,4.71-.15,43.11,43.11,0,0,1,6.05-.23,10.11,10.11,0,0,1,4.65,1.4,7.31,7.31,0,0,1,3.15,4.34A8.71,8.71,0,0,1,414.56,62Z" style="fill:#f0f0f0"></path><path id="freepik--money--inject-4" d="M69.54,62.59a13,13,0,0,1-8.17,1.61L60.27,69l-5.15-1.19,1.06-4.6a27.54,27.54,0,0,1-5.83-2.5,18,18,0,0,1-4.26-3.27l4.24-5.62A19.55,19.55,0,0,0,59.55,57q4.89,1.14,5.46-1.31a2.08,2.08,0,0,0-1-2.23,26.37,26.37,0,0,0-4.18-2.35,43.05,43.05,0,0,1-5.3-2.88,9.77,9.77,0,0,1-3.28-3.59,7.41,7.41,0,0,1-.48-5.35A8.85,8.85,0,0,1,55,33.61a13.05,13.05,0,0,1,8.43-1.45l1.09-4.72,5.15,1.19-1.07,4.64a26.66,26.66,0,0,1,4.5,1.94,17.79,17.79,0,0,1,3.62,2.61l-4.08,5.7a17.89,17.89,0,0,0-7.79-4.25,7.19,7.19,0,0,0-3.86-.11,2.32,2.32,0,0,0-1.61,1.69,2,2,0,0,0,1,2.12,26.08,26.08,0,0,0,4.13,2.27,42.83,42.83,0,0,1,5.33,2.88A10.14,10.14,0,0,1,73,51.69a7.26,7.26,0,0,1,.5,5.34A8.69,8.69,0,0,1,69.54,62.59Z" style="fill:#f0f0f0"></path><path id="freepik--money--inject-4" d="M471.9,204.19q-3.78,2.31-9.74,1.75l-1.41,5.64-6.09-1.52,1.36-5.44a32.45,32.45,0,0,1-6.89-3.09,21.36,21.36,0,0,1-5-4l5.15-6.59a23.14,23.14,0,0,0,10.86,6.43q5.79,1.44,6.51-1.45a2.47,2.47,0,0,0-1.09-2.67,31.05,31.05,0,0,0-4.92-2.88,51.66,51.66,0,0,1-6.24-3.52,11.6,11.6,0,0,1-3.83-4.33,8.83,8.83,0,0,1-.46-6.37,10.5,10.5,0,0,1,5-6.7q3.92-2.34,10-1.57l1.39-5.59,6.1,1.52-1.37,5.49a30.47,30.47,0,0,1,5.31,2.4,21.55,21.55,0,0,1,4.25,3.16l-5,6.7a21.18,21.18,0,0,0-9.17-5.2,8.41,8.41,0,0,0-4.58-.2,2.72,2.72,0,0,0-1.95,2,2.35,2.35,0,0,0,1.09,2.53,30.48,30.48,0,0,0,4.86,2.78,50.33,50.33,0,0,1,6.27,3.53,12.15,12.15,0,0,1,3.84,4.3,8.74,8.74,0,0,1,.49,6.36A10.33,10.33,0,0,1,471.9,204.19Z" style="fill:#f0f0f0"></path><path id="freepik--money--inject-4" d="M469.59,110.16a10.47,10.47,0,0,1-4.32,5.1l1.69,3.53-3.82,1.83-1.63-3.41a21.55,21.55,0,0,1-4.91,1.35,14.27,14.27,0,0,1-4.3.08l-.16-5.64a14.79,14.79,0,0,0,4.24-.07,14.35,14.35,0,0,0,4.17-1.25q3.63-1.74,2.77-3.55a1.68,1.68,0,0,0-1.72-.92,21,21,0,0,0-3.79.62,34.68,34.68,0,0,1-4.76.84,7.72,7.72,0,0,1-3.85-.6,6,6,0,0,1-3-3.12,7.09,7.09,0,0,1-.27-5.64,10.4,10.4,0,0,1,4.55-5.13l-1.67-3.51,3.82-1.82,1.64,3.44a20.42,20.42,0,0,1,3.8-1,14.14,14.14,0,0,1,3.57-.19l.29,5.62a14.46,14.46,0,0,0-7,1.23,5.69,5.69,0,0,0-2.47,1.87,1.85,1.85,0,0,0-.17,1.86,1.6,1.6,0,0,0,1.66.85,20.09,20.09,0,0,0,3.72-.65,34.37,34.37,0,0,1,4.78-.85,8.08,8.08,0,0,1,3.84.59,5.84,5.84,0,0,1,3,3.09A7,7,0,0,1,469.59,110.16Z" style="fill:#f0f0f0"></path><path id="freepik--money--inject-4" d="M39.77,113.64a8.88,8.88,0,0,1-3.86,4.13l1.28,3.07-3.31,1.38-1.24-3a18.57,18.57,0,0,1-4.21.94,12.33,12.33,0,0,1-3.65-.11l.1-4.78a13.23,13.23,0,0,0,7.18-.77q3.13-1.32,2.48-2.89a1.4,1.4,0,0,0-1.41-.85,17.5,17.5,0,0,0-3.24.36,29.27,29.27,0,0,1-4.06.52,6.63,6.63,0,0,1-3.24-.67,5.06,5.06,0,0,1-2.39-2.76,6,6,0,0,1,0-4.79,8.82,8.82,0,0,1,4.06-4.15l-1.27-3,3.31-1.39,1.25,3a16.61,16.61,0,0,1,3.25-.71,12.38,12.38,0,0,1,3,0v4.76a12.18,12.18,0,0,0-6,.76,4.91,4.91,0,0,0-2.17,1.48,1.56,1.56,0,0,0-.21,1.57,1.34,1.34,0,0,0,1.36.78,16.6,16.6,0,0,0,3.18-.39,28.73,28.73,0,0,1,4.08-.52,6.83,6.83,0,0,1,3.23.65,4.94,4.94,0,0,1,2.4,2.75A5.91,5.91,0,0,1,39.77,113.64Z" style="fill:#f0f0f0"></path><path id="freepik--money--inject-4" d="M44.75,239.91a11.42,11.42,0,0,1-5.35,5l1.36,4-4.39,1.47-1.31-3.91a24.22,24.22,0,0,1-5.49.81,15.47,15.47,0,0,1-4.68-.49l.59-6.12a16.38,16.38,0,0,0,4.59.49,16.17,16.17,0,0,0,4.69-.8c2.78-.93,3.93-2.09,3.47-3.48a1.84,1.84,0,0,0-1.74-1.23,22.76,22.76,0,0,0-4.19.17,38.81,38.81,0,0,1-5.26.28A8.48,8.48,0,0,1,23,234.93a6.44,6.44,0,0,1-2.81-3.77A7.73,7.73,0,0,1,20.6,225a11.37,11.37,0,0,1,5.61-4.95l-1.35-4,4.38-1.47,1.33,3.94a22.46,22.46,0,0,1,4.24-.61,15.79,15.79,0,0,1,3.9.28l-.43,6.12a15.66,15.66,0,0,0-7.75.4,6.33,6.33,0,0,0-2.93,1.69,2.05,2.05,0,0,0-.43,2,1.74,1.74,0,0,0,1.69,1.15,21.87,21.87,0,0,0,4.11-.21,39.67,39.67,0,0,1,5.29-.29,8.83,8.83,0,0,1,4.08,1.15,6.41,6.41,0,0,1,2.83,3.75A7.67,7.67,0,0,1,44.75,239.91Z" style="fill:#f0f0f0"></path><path id="freepik--money--inject-4" d="M228.3,65.52a10.83,10.83,0,0,1-6.86.8l-1.22,3.86L216,68.85l1.18-3.72a23.14,23.14,0,0,1-4.66-2.45,15,15,0,0,1-3.3-3l3.87-4.37a16,16,0,0,0,7.28,5q4,1.26,4.59-.72a1.72,1.72,0,0,0-.64-1.91,20.74,20.74,0,0,0-3.3-2.21,38.39,38.39,0,0,1-4.19-2.73,8.07,8.07,0,0,1-2.47-3.18,6.16,6.16,0,0,1-.05-4.45,7.34,7.34,0,0,1,3.79-4.45A10.77,10.77,0,0,1,225.2,40l1.21-3.83,4.18,1.32-1.19,3.76a22.27,22.27,0,0,1,3.59,1.9,15.3,15.3,0,0,1,2.82,2.39L232.06,50a15,15,0,0,0-6.15-4,6,6,0,0,0-3.18-.34,1.94,1.94,0,0,0-1.45,1.29,1.65,1.65,0,0,0,.65,1.81,21.05,21.05,0,0,0,3.27,2.15,35.27,35.27,0,0,1,4.21,2.73,8.38,8.38,0,0,1,2.48,3.16,6,6,0,0,1,.06,4.45A7.21,7.21,0,0,1,228.3,65.52Z" style="fill:#f0f0f0"></path><path id="freepik--money--inject-4" d="M338.76,82.08A9.21,9.21,0,0,1,333,83.35l-.71,3.4L328.61,86l.68-3.27A19.74,19.74,0,0,1,325.1,81,12.72,12.72,0,0,1,322,78.78l2.92-4.06A13.15,13.15,0,0,0,328,77a12.75,12.75,0,0,0,3.62,1.35c2.32.48,3.61.14,3.85-1a1.47,1.47,0,0,0-.71-1.57,19.38,19.38,0,0,0-3-1.6,31.49,31.49,0,0,1-3.81-2,7,7,0,0,1-2.39-2.5,5.23,5.23,0,0,1-.43-3.79,6.24,6.24,0,0,1,2.83-4.12,9.24,9.24,0,0,1,6-1.18l.69-3.37,3.68.76-.69,3.31a17.75,17.75,0,0,1,3.23,1.31,12.56,12.56,0,0,1,2.62,1.79l-2.8,4.11A12.64,12.64,0,0,0,335,65.6a5,5,0,0,0-2.75,0,1.62,1.62,0,0,0-1.11,1.22,1.4,1.4,0,0,0,.71,1.49,18.14,18.14,0,0,0,3,1.54,31,31,0,0,1,3.83,2,7.1,7.1,0,0,1,2.39,2.48,5.15,5.15,0,0,1,.45,3.78A6.19,6.19,0,0,1,338.76,82.08Z" style="fill:#f0f0f0"></path></g><g id="freepik--Receipt--inject-4"><g id="freepik--Ticket--inject-4"><path d="M272.44,461.7v-5.6a.31.31,0,0,0-.31-.32h-9.94v-5.6a.32.32,0,0,0-.32-.32h-9.94v-5.6a.31.31,0,0,0-.31-.32h-10v-5.6a.31.31,0,0,0-.31-.32h-9.94v-5.61a.31.31,0,0,0-.32-.31h-9.94v-5.61a.31.31,0,0,0-.31-.31h-9.94v-5.43l150.43-87v5.37a.32.32,0,0,0,.32.32h9.94v5.61a.31.31,0,0,0,.31.31h9.95V351a.31.31,0,0,0,.31.31h9.94v5.61a.31.31,0,0,0,.32.31h9.94v5.61a.32.32,0,0,0,.31.32h9.94v5.6a.32.32,0,0,0,.32.32h9.94v5.6a.31.31,0,0,0,.31.32h9.08l-150,86.71Z" style="fill:#fafafa"></path><path d="M361,334.32v4.82a.64.64,0,0,0,.63.64h9.62v5.29a.63.63,0,0,0,.63.63h9.63V351a.63.63,0,0,0,.63.63h9.63v5.29a.63.63,0,0,0,.63.63h9.62v5.29a.63.63,0,0,0,.63.63h9.63v5.29a.63.63,0,0,0,.63.63h9.62v5.29a.63.63,0,0,0,.63.63h7.9L282.21,461.39h-9.45V456.1a.63.63,0,0,0-.63-.63H262.5v-5.29a.63.63,0,0,0-.63-.63h-9.62v-5.29a.64.64,0,0,0-.63-.64H242v-5.29a.63.63,0,0,0-.63-.63h-9.63v-5.29a.63.63,0,0,0-.63-.63h-9.62v-5.29a.63.63,0,0,0-.63-.63h-9.63v-4.93L361,334.32m.63-1.1L210.59,420.57v5.92h10.26v5.92H231.1v5.92h10.26v5.93h10.26v5.92h10.25v5.92h10.26V462h10.25l151.07-87.35H423.19v-5.92H412.94v-5.92H402.68v-5.92H392.43V351H382.17v-5.92H371.91v-5.92H361.66v-5.92Z" style="fill:#e0e0e0"></path><path d="M392.43,375.94a1.27,1.27,0,0,1-.63-.17L361,358a1.26,1.26,0,0,1,1.26-2.19l30.77,17.77a1.27,1.27,0,0,1-.63,2.36Z" style="fill:#BBDBF7"></path><path d="M392.43,381.07a.42.42,0,0,1-.24-.07l-41-23.68a.47.47,0,1,1,.47-.82l41,23.68a.48.48,0,0,1,.18.65A.49.49,0,0,1,392.43,381.07Z" style="fill:#455a64"></path><path d="M387.3,384a.44.44,0,0,1-.24-.07l-41-23.68a.47.47,0,1,1,.47-.82l41,23.68a.48.48,0,0,1,.17.65A.49.49,0,0,1,387.3,384Z" style="fill:#455a64"></path><path d="M366.79,384a.4.4,0,0,1-.24-.07l-35.9-20.72a.48.48,0,0,1-.17-.65.48.48,0,0,1,.65-.17L367,383.14a.48.48,0,0,1,.18.65A.49.49,0,0,1,366.79,384Z" style="fill:#455a64"></path><path d="M382.17,392.91a.53.53,0,0,1-.24-.06l-10.25-5.93a.47.47,0,0,1-.18-.64.49.49,0,0,1,.65-.18L382.41,392a.48.48,0,0,1,.17.65A.49.49,0,0,1,382.17,392.91Z" style="fill:#455a64"></path><path d="M361.66,387a.5.5,0,0,1-.24-.06L325.53,366.2a.48.48,0,0,1-.18-.65.48.48,0,0,1,.65-.17l35.89,20.72a.48.48,0,0,1,.18.65A.49.49,0,0,1,361.66,387Z" style="fill:#455a64"></path><path d="M377,395.87a.53.53,0,0,1-.24-.06l-10.25-5.92a.47.47,0,0,1-.17-.65.48.48,0,0,1,.64-.18L377.28,395a.47.47,0,0,1,.17.64A.49.49,0,0,1,377,395.87Z" style="fill:#455a64"></path><path d="M356.53,390a.53.53,0,0,1-.24-.06L320.4,369.16a.48.48,0,0,1-.18-.65.5.5,0,0,1,.65-.17l35.9,20.73a.47.47,0,0,1,.17.64A.49.49,0,0,1,356.53,390Z" style="fill:#455a64"></path><path d="M371.91,398.83a.46.46,0,0,1-.23-.06l-10.26-5.92a.48.48,0,0,1-.17-.65.46.46,0,0,1,.64-.17L372.15,398a.47.47,0,0,1-.24.88Z" style="fill:#455a64"></path><path d="M351.4,392.91a.53.53,0,0,1-.24-.06l-35.89-20.73a.46.46,0,0,1-.17-.64.48.48,0,0,1,.64-.18L351.64,392a.47.47,0,0,1,.17.64A.47.47,0,0,1,351.4,392.91Z" style="fill:#455a64"></path><path d="M366.78,401.79a.46.46,0,0,1-.23-.06l-10.26-5.92a.48.48,0,0,1-.17-.65.47.47,0,0,1,.65-.17L367,400.91a.47.47,0,0,1,.17.65A.45.45,0,0,1,366.78,401.79Z" style="fill:#455a64"></path><path d="M346.27,395.87a.53.53,0,0,1-.24-.06l-35.89-20.73a.46.46,0,0,1-.17-.64.48.48,0,0,1,.64-.18L346.51,395a.47.47,0,0,1-.24.88Z" style="fill:#455a64"></path><path d="M361.66,404.75a.48.48,0,0,1-.24-.06l-10.26-5.92a.48.48,0,0,1-.17-.65.47.47,0,0,1,.65-.17l10.25,5.92a.47.47,0,0,1-.23.88Z" style="fill:#455a64"></path><path d="M338.72,400.37a.44.44,0,0,1-.24-.07l-35.89-20.72a.47.47,0,1,1,.47-.82L339,399.48a.48.48,0,0,1,.17.65A.49.49,0,0,1,338.72,400.37Z" style="fill:#BBDBF7"></path><path d="M354.1,409.25a.46.46,0,0,1-.23-.06l-10.26-5.93a.46.46,0,0,1-.17-.64.48.48,0,0,1,.64-.18l10.26,5.92a.48.48,0,0,1-.24.89Z" style="fill:#BBDBF7"></path><path d="M328.46,407.08a1.32,1.32,0,0,1-.63-.17l-20.51-11.84a1.26,1.26,0,0,1,1.26-2.19l20.51,11.84a1.25,1.25,0,0,1,.47,1.72A1.27,1.27,0,0,1,328.46,407.08Z" style="fill:#BBDBF7"></path><path d="M328.45,424.05a.48.48,0,0,1-.23-.07L277,394.39a.48.48,0,0,1,.48-.82l51.25,29.59a.48.48,0,0,1-.24.89Z" style="fill:#455a64"></path><path d="M323.21,426.94a.46.46,0,0,1-.23-.06l-51.26-29.59a.48.48,0,0,1-.17-.65.47.47,0,0,1,.65-.17l51.25,29.59a.46.46,0,0,1,.17.64A.44.44,0,0,1,323.21,426.94Z" style="fill:#455a64"></path><path d="M318,429.84a.39.39,0,0,1-.23-.07l-51.26-29.59a.47.47,0,0,1-.17-.64.48.48,0,0,1,.65-.18L318.21,429a.48.48,0,0,1-.24.89Z" style="fill:#455a64"></path><path d="M292.61,444.71a.46.46,0,0,1-.23-.06l-51.26-29.59a.47.47,0,0,1-.17-.65.46.46,0,0,1,.64-.17l51.26,29.59a.47.47,0,0,1,.17.65A.47.47,0,0,1,292.61,444.71Z" style="fill:#455a64"></path><path d="M287.37,447.61a.46.46,0,0,1-.23-.06L235.88,418a.48.48,0,0,1,.47-.83l51.26,29.6a.46.46,0,0,1,.17.64A.45.45,0,0,1,287.37,447.61Z" style="fill:#455a64"></path><path d="M297.77,429.86a.48.48,0,0,1-.24-.07L266.76,412a.47.47,0,0,1-.17-.65.46.46,0,0,1,.64-.17L298,429a.48.48,0,0,1,.18.65A.49.49,0,0,1,297.77,429.86Z" style="fill:#455a64"></path><path d="M292.64,432.75a.51.51,0,0,1-.24-.07l-30.77-17.76a.48.48,0,0,1-.17-.65.47.47,0,0,1,.65-.17l30.76,17.76a.48.48,0,0,1,.18.65A.49.49,0,0,1,292.64,432.75Z" style="fill:#455a64"></path></g></g><g id="freepik--Coins--inject-4"><g id="freepik--coins--inject-4"><g id="freepik--Coin--inject-4"><path d="M238.55,398.88a28.41,28.41,0,0,0-10.5-9.71c-17.16-9.91-45-9.91-62.15,0-4.9,2.83-8.39,6.16-10.49,9.71H153v9h0c.32,6.25,4.59,12.43,12.84,17.2,17.17,9.91,45,9.91,62.15,0,8.25-4.77,12.55-10.95,12.87-17.2h0v-9Z" style="fill:#BBDBF7"></path><path d="M238.55,398.88a28.41,28.41,0,0,0-10.5-9.71c-17.16-9.91-45-9.91-62.15,0-4.9,2.83-8.39,6.16-10.49,9.71H153v9h0c.32,6.25,4.59,12.43,12.84,17.2,17.17,9.91,45,9.91,62.15,0,8.25-4.77,12.55-10.95,12.87-17.2h0v-9Z" style="opacity:0.25"></path><path d="M197,381.74c-11.25,0-22.49,2.47-31.08,7.43-4.9,2.83-8.39,6.16-10.49,9.71H153v9h0c.32,6.25,4.59,12.43,12.84,17.2,8.59,4.95,19.83,7.43,31.08,7.43Z" style="opacity:0.1"></path><path d="M173,385.86a47.87,47.87,0,0,0-7.08,3.31c-4.9,2.83-8.39,6.16-10.49,9.71H153v9h0c.32,6.25,4.59,12.43,12.84,17.2a47.87,47.87,0,0,0,7.08,3.31Z" style="opacity:0.1"></path><path d="M221,385.86a47.75,47.75,0,0,1,7.07,3.31,28.41,28.41,0,0,1,10.5,9.71h2.37v9h0c-.32,6.25-4.62,12.43-12.87,17.2a47.75,47.75,0,0,1-7.07,3.31Z" style="fill:#BBDBF7;opacity:0.5"></path><path d="M165.9,380.94c-17.16,9.91-17.16,26,0,35.88,15,8.67,38.2,9.75,55.25,3.25h0l.68-.26a48.77,48.77,0,0,0,6.21-3c14.31-8.26,16.69-20.8,7.13-30.49h0a33.11,33.11,0,0,0-7.12-5.39C210.89,371,183.07,371,165.9,380.94Z" style="fill:#BBDBF7"></path><path d="M165.9,380.94c-17.16,9.91-17.16,26,0,35.88,15,8.67,38.2,9.75,55.25,3.25h0l.68-.26a48.77,48.77,0,0,0,6.21-3c14.31-8.26,16.69-20.8,7.13-30.49h0a33.11,33.11,0,0,0-7.12-5.39C210.89,371,183.07,371,165.9,380.94Z" style="opacity:0.2"></path><path d="M235.18,386.33c.18.21,6.19,6.54,4.59,15.65-1.51,8.72-13.72,16.06-17.93,17.83a48.77,48.77,0,0,0,6.21-3C242.36,408.56,244.74,396,235.18,386.33Z" style="fill:#f5f5f5;opacity:0.5"></path><path d="M158.78,411.43a19.19,19.19,0,0,1-4.6-15.65c1.52-8.72,13.73-16.06,17.94-17.82a46.22,46.22,0,0,0-6.21,3C151.59,389.2,149.22,401.75,158.78,411.43Z" style="fill:#f5f5f5;opacity:0.5"></path><path d="M225.88,415.52c16-9.21,16-24.14,0-33.35s-41.82-9.21-57.77,0-16,24.14,0,33.35S209.92,424.73,225.88,415.52Z" style="fill:#BBDBF7"></path><path d="M225.88,415.52c16-9.21,16-24.14,0-33.35s-41.82-9.21-57.77,0-16,24.14,0,33.35S209.92,424.73,225.88,415.52Z" style="fill:#fff;opacity:0.4"></path><path d="M236,405.89c3.28-6.07,2.21-12.76-3.21-18.43a27.42,27.42,0,0,0-3.46-3,37.2,37.2,0,0,0-3.31-2.18c-.65-.38-1.32-.74-2-1.09,1.7,2.8,1.07,5.79-8.55,6.35-18.82,1.1,5,19.09,5,19.09S232.62,400.74,236,405.89Z" style="fill:#fff;opacity:0.2"></path><path d="M234,400.91c2.83-.31,4.23-3.22,3.13-6.49s-4.28-5.66-7.1-5.34-4.23,3.22-3.13,6.49S231.22,401.23,234,400.91Z" style="fill:#fff;opacity:0.5"></path><path d="M204.26,415.91c-.92-7-31.49-26.35-31.49-26.35s-6.77-2.72-4.52-7.46a34.15,34.15,0,0,0-3.27,2.12c-.71.51-1.37,1-2,1.57-9.1,7.88-9.11,18.23,0,26.11.61.54,1.28,1.07,2,1.58a35.21,35.21,0,0,0,3,2c1,.61,2.12,1.17,3.24,1.69.89.43,1.81.82,2.75,1.19s1.89.72,2.87,1a59.1,59.1,0,0,0,9.11,2.2l2.06.29a70.71,70.71,0,0,0,20.27-.34S203.39,420.5,204.26,415.91Z" style="fill:#BBDBF7"></path><path d="M204.26,415.91c-.92-7-31.49-26.35-31.49-26.35s-6.77-2.72-4.52-7.46a34.15,34.15,0,0,0-3.27,2.12c-.71.51-1.37,1-2,1.57-9.1,7.88-9.11,18.23,0,26.11.61.54,1.28,1.07,2,1.58a35.21,35.21,0,0,0,3,2c1,.61,2.12,1.17,3.24,1.69.89.43,1.81.82,2.75,1.19s1.89.72,2.87,1a59.1,59.1,0,0,0,9.11,2.2l2.06.29a70.71,70.71,0,0,0,20.27-.34S203.39,420.5,204.26,415.91Z" style="fill:#fff;opacity:0.30000000000000004"></path><path d="M175.46,386.42c-11.4,6.58-11.86,17.08-1.39,24,.44.29.91.58,1.39.86,11.89,6.86,31.15,6.86,43,0s11.89-18,0-24.85c-.48-.28-1-.55-1.49-.81C205.05,379.57,186.86,379.84,175.46,386.42Z" style="fill:#BBDBF7"></path><path d="M175.46,386.42c-11.4,6.58-11.86,17.08-1.39,24,.44.29.91.58,1.39.86,11.89,6.86,31.15,6.86,43,0s11.89-18,0-24.85c-.48-.28-1-.55-1.49-.81C205.05,379.57,186.86,379.84,175.46,386.42Z" style="opacity:0.2"></path><ellipse cx="196.99" cy="398.84" rx="29.09" ry="16.79" style="fill:#BBDBF7"></ellipse><ellipse cx="196.99" cy="398.84" rx="29.09" ry="16.79" style="opacity:0.5"></ellipse><path d="M176.43,391.65c11.36-6.56,29.77-6.56,41.13,0,4.65,2.69,7.39,6.05,8.24,9.54-.85,3.48-3.59,6.85-8.24,9.53-11.36,6.56-29.77,6.56-41.13,0-4.65-2.68-7.39-6.05-8.24-9.53C169,397.7,171.78,394.33,176.43,391.65Z" style="fill:#BBDBF7"></path><path d="M176.43,391.65c11.36-6.56,29.77-6.56,41.13,0,4.65,2.69,7.39,6.05,8.24,9.54-.85,3.48-3.59,6.85-8.24,9.53-11.36,6.56-29.77,6.56-41.13,0-4.65-2.68-7.39-6.05-8.24-9.53C169,397.7,171.78,394.33,176.43,391.65Z" style="opacity:0.35000000000000003"></path><path d="M215.31,403.9c0-.56,0-2.87,0-3.47,0-1.42-1-2.8-3.1-4l-.07-.05c-3.91-2.26-7.95-2-11.54-1.06h0c-1.53.38-3,.88-4.31,1.34a44.25,44.25,0,0,1-4.62,1.43h0a8.22,8.22,0,0,1-2.19.21,4.77,4.77,0,0,1-1.82-.48l.14-.1c.14-.1.3-.19.46-.29a11.45,11.45,0,0,1,1.22-.6,8.43,8.43,0,0,1,6.46-.15l3.73-3.76v-3.45a17.59,17.59,0,0,0-10.19-.37,20.07,20.07,0,0,0-3.24,1.12L182.47,388,178,390.61v3.45l1.53.88a3.66,3.66,0,0,0-.66,2c0,.58,0,2.87,0,3.45,0,1.42,1,2.8,3.17,4a13.05,13.05,0,0,0,6.14,1.77h0c.4,0,.82,0,1.23,0a24,24,0,0,0,6.6-1.43c.44-.14.86-.29,1.28-.44l-3.75,3.77v3.45a18.34,18.34,0,0,0,14.38-.62l3.69,2.12,4.45-2.57V407l-1.53-.88A4.06,4.06,0,0,0,215.31,403.9Zm-9.38-.29a10,10,0,0,1-1,.51,9.56,9.56,0,0,1-7.28.11c3.49-1.23,6.4-2.3,8.88-1C206.32,403.37,206.13,403.49,205.93,403.61Z" style="fill:#BBDBF7"></path><path d="M200.6,395.28h0c-1.53.38-3,.88-4.31,1.34a44.25,44.25,0,0,1-4.62,1.43h0a8.22,8.22,0,0,1-2.19.21,4.83,4.83,0,0,1-2.12-.63c-1.43-.83-1.64-2,.44-3.41l.46-.28a9.82,9.82,0,0,1,1.22-.6,8.39,8.39,0,0,1,6.46-.15l3.73-3.76a17.59,17.59,0,0,0-10.19-.37,20.07,20.07,0,0,0-3.24,1.12L182.47,388,178,390.61l3.69,2.12,0,0c-3.74,2.85-3.82,5.79.39,8.23a13,13,0,0,0,6.14,1.76h0c.4,0,.82,0,1.23,0a24.39,24.39,0,0,0,6.6-1.43c4.27-1.43,7.73-3.11,10.61-1.45,1.93,1.11,1.39,2.51-.72,3.74a10,10,0,0,1-1,.51,9.59,9.59,0,0,1-7.41.06l-3.91,3.92a18.3,18.3,0,0,0,14.38-.63l3.69,2.13,4.45-2.57-3.69-2.13c3.71-2.86,4.13-6-.19-8.51l-.07-.05C208.23,394.08,204.19,394.38,200.6,395.28Z" style="fill:#BBDBF7"></path><g style="opacity:0.30000000000000004"><path d="M200.6,395.28h0c-1.53.38-3,.88-4.31,1.34a44.25,44.25,0,0,1-4.62,1.43h0a8.22,8.22,0,0,1-2.19.21,4.83,4.83,0,0,1-2.12-.63c-1.43-.83-1.64-2,.44-3.41l.46-.28a9.82,9.82,0,0,1,1.22-.6,8.39,8.39,0,0,1,6.46-.15l3.73-3.76a17.59,17.59,0,0,0-10.19-.37,20.07,20.07,0,0,0-3.24,1.12L182.47,388,178,390.61l3.69,2.12,0,0c-3.74,2.85-3.82,5.79.39,8.23a13,13,0,0,0,6.14,1.76h0c.4,0,.82,0,1.23,0a24.39,24.39,0,0,0,6.6-1.43c4.27-1.43,7.73-3.11,10.61-1.45,1.93,1.11,1.39,2.51-.72,3.74a10,10,0,0,1-1,.51,9.59,9.59,0,0,1-7.41.06l-3.91,3.92a18.3,18.3,0,0,0,14.38-.63l3.69,2.13,4.45-2.57-3.69-2.13c3.71-2.86,4.13-6-.19-8.51l-.07-.05C208.23,394.08,204.19,394.38,200.6,395.28Z" style="fill:#fff"></path></g><polygon points="178.02 390.61 182.51 388.57 186.2 390.19 182.47 388.04 178.02 390.61" style="fill:#f5f5f5;opacity:0.45"></polygon><path d="M188.92,389.21a20.83,20.83,0,0,1,9.57.32l-2.58,3.67,3.72-3.76A17.72,17.72,0,0,0,188.92,389.21Z" style="fill:#f5f5f5;opacity:0.45"></path><path d="M212.14,396.34l.07.05c4.32,2.53,3.9,5.65.19,8.51,3.28-3.57,2.69-6.06-.87-8.12s-8.11-2-10.93-1.5C204.19,394.38,208.23,394.08,212.14,396.34Z" style="fill:#f5f5f5;opacity:0.45"></path><polygon points="212.4 404.9 215.23 407.07 211.64 409.6 216.09 407.03 212.4 404.9" style="fill:#f5f5f5;opacity:0.45"></polygon><path d="M204.89,404.12a9.53,9.53,0,0,1-7.09.62l-4.23,3.36,3.91-3.92A9.59,9.59,0,0,0,204.89,404.12Z" style="fill:#f5f5f5;opacity:0.45"></path><path d="M191.63,398.06c-1.68.66-4.1.55-5.33-.51s-.46-2.29,1.46-3.32c-2.08,1.37-1.87,2.58-.44,3.41a4.83,4.83,0,0,0,2.12.63A8.22,8.22,0,0,0,191.63,398.06Z" style="fill:#f5f5f5;opacity:0.45"></path><path d="M181.67,392.76c-.32.28-3,2.78-1.81,5.28,1.25,2.66,5.18,4.37,8.35,4.71h0a13,13,0,0,1-6.14-1.76C177.85,398.55,177.93,395.61,181.67,392.76Z" style="fill:#f5f5f5;opacity:0.45"></path></g><g id="freepik--coin--inject-4"><path d="M233.47,385.46c-2.1-3.55-5.59-6.88-10.49-9.71-17.17-9.91-45-9.91-62.15,0-4.9,2.83-8.4,6.16-10.5,9.71H148v9h0c.32,6.25,4.59,12.43,12.84,17.2,17.16,9.91,45,9.91,62.15,0,8.25-4.77,12.55-10.95,12.87-17.2h0v-9Z" style="fill:#BBDBF7"></path><path d="M233.47,385.46c-2.1-3.55-5.59-6.88-10.49-9.71-17.17-9.91-45-9.91-62.15,0-4.9,2.83-8.4,6.16-10.5,9.71H148v9h0c.32,6.25,4.59,12.43,12.84,17.2,17.16,9.91,45,9.91,62.15,0,8.25-4.77,12.55-10.95,12.87-17.2h0v-9Z" style="opacity:0.25"></path><path d="M191.91,368.32c-11.25,0-22.5,2.47-31.08,7.43-4.9,2.83-8.4,6.16-10.5,9.71H148v9h0c.32,6.25,4.59,12.43,12.84,17.2,8.58,4.95,19.83,7.43,31.08,7.43Z" style="opacity:0.1"></path><path d="M167.9,372.44a47.75,47.75,0,0,0-7.07,3.31c-4.9,2.83-8.4,6.16-10.5,9.71H148v9h0c.32,6.25,4.59,12.43,12.84,17.2a47.75,47.75,0,0,0,7.07,3.31Z" style="opacity:0.1"></path><path d="M215.9,372.44a47.87,47.87,0,0,1,7.08,3.31c4.9,2.83,8.39,6.16,10.49,9.71h2.38v9h0c-.32,6.25-4.62,12.43-12.87,17.2a47.87,47.87,0,0,1-7.08,3.31Z" style="fill:#BBDBF7;opacity:0.5"></path><path d="M160.83,367.52c-17.16,9.91-17.16,26,0,35.88,15,8.67,38.19,9.75,55.25,3.25h0l.68-.26a47.51,47.51,0,0,0,6.21-3c14.32-8.26,16.69-20.8,7.13-30.49h0a33.18,33.18,0,0,0-7.13-5.39C205.82,357.61,178,357.61,160.83,367.52Z" style="fill:#BBDBF7"></path><path d="M160.83,367.52c-17.16,9.91-17.16,26,0,35.88,15,8.67,38.19,9.75,55.25,3.25h0l.68-.26a47.51,47.51,0,0,0,6.21-3c14.32-8.26,16.69-20.8,7.13-30.49h0a33.18,33.18,0,0,0-7.13-5.39C205.82,357.61,178,357.61,160.83,367.52Z" style="opacity:0.2"></path><path d="M230.1,372.91a19.19,19.19,0,0,1,4.6,15.65c-1.52,8.72-13.73,16.06-17.94,17.83a47.51,47.51,0,0,0,6.21-3C237.29,395.14,239.66,382.6,230.1,372.91Z" style="fill:#f5f5f5;opacity:0.5"></path><path d="M153.7,398c-.18-.21-6.19-6.54-4.59-15.65,1.52-8.72,13.73-16.06,17.93-17.82a47.42,47.42,0,0,0-6.21,3C146.52,375.78,144.14,388.33,153.7,398Z" style="fill:#f5f5f5;opacity:0.5"></path><path d="M220.8,402.1c15.95-9.21,15.95-24.14,0-33.35s-41.82-9.21-57.77,0-15.95,24.14,0,33.35S204.85,411.31,220.8,402.1Z" style="fill:#BBDBF7"></path><path d="M220.8,402.1c15.95-9.21,15.95-24.14,0-33.35s-41.82-9.21-57.77,0-15.95,24.14,0,33.35S204.85,411.31,220.8,402.1Z" style="fill:#fff;opacity:0.4"></path><path d="M230.91,392.47c3.29-6.07,2.21-12.76-3.21-18.43a26.74,26.74,0,0,0-3.46-3,37,37,0,0,0-3.3-2.18c-.66-.38-1.32-.74-2-1.09,1.7,2.8,1.08,5.79-8.54,6.35-18.83,1.1,5,19.09,5,19.09S227.55,387.32,230.91,392.47Z" style="fill:#fff;opacity:0.2"></path><path d="M229,387.49c2.82-.31,4.22-3.22,3.13-6.49s-4.28-5.66-7.11-5.34-4.22,3.22-3.13,6.49S226.14,387.81,229,387.49Z" style="fill:#fff;opacity:0.5"></path><path d="M199.19,402.49c-.93-7-31.49-26.35-31.49-26.35s-6.78-2.72-4.53-7.46a36.86,36.86,0,0,0-3.27,2.12c-.7.51-1.36,1-2,1.57-9.1,7.88-9.11,18.23,0,26.11.62.54,1.28,1.07,2,1.58.94.68,1.95,1.34,3,2s2.12,1.17,3.24,1.69c.89.43,1.82.82,2.76,1.19s1.89.72,2.86,1a59.51,59.51,0,0,0,9.12,2.2l2.05.29a70.71,70.71,0,0,0,20.27-.34S198.31,407.08,199.19,402.49Z" style="fill:#BBDBF7"></path><path d="M199.19,402.49c-.93-7-31.49-26.35-31.49-26.35s-6.78-2.72-4.53-7.46a36.86,36.86,0,0,0-3.27,2.12c-.7.51-1.36,1-2,1.57-9.1,7.88-9.11,18.23,0,26.11.62.54,1.28,1.07,2,1.58.94.68,1.95,1.34,3,2s2.12,1.17,3.24,1.69c.89.43,1.82.82,2.76,1.19s1.89.72,2.86,1a59.51,59.51,0,0,0,9.12,2.2l2.05.29a70.71,70.71,0,0,0,20.27-.34S198.31,407.08,199.19,402.49Z" style="fill:#fff;opacity:0.30000000000000004"></path><path d="M170.38,373c-11.4,6.58-11.86,17.08-1.39,24,.45.29.91.58,1.4.86,11.88,6.86,31.15,6.86,43,0s11.89-18,0-24.85q-.74-.42-1.5-.81C200,366.15,181.78,366.42,170.38,373Z" style="fill:#BBDBF7"></path><path d="M170.38,373c-11.4,6.58-11.86,17.08-1.39,24,.45.29.91.58,1.4.86,11.88,6.86,31.15,6.86,43,0s11.89-18,0-24.85q-.74-.42-1.5-.81C200,366.15,181.78,366.42,170.38,373Z" style="opacity:0.2"></path><ellipse cx="191.92" cy="385.42" rx="29.09" ry="16.79" style="fill:#BBDBF7"></ellipse><ellipse cx="191.92" cy="385.42" rx="29.09" ry="16.79" style="opacity:0.5"></ellipse><path d="M171.35,378.23c11.36-6.56,29.78-6.56,41.14,0,4.64,2.68,7.39,6,8.23,9.54-.84,3.48-3.59,6.85-8.23,9.53-11.36,6.56-29.78,6.56-41.14,0-4.64-2.68-7.39-6.05-8.23-9.53C164,384.28,166.71,380.91,171.35,378.23Z" style="fill:#BBDBF7"></path><path d="M171.35,378.23c11.36-6.56,29.78-6.56,41.14,0,4.64,2.68,7.39,6,8.23,9.54-.84,3.48-3.59,6.85-8.23,9.53-11.36,6.56-29.78,6.56-41.14,0-4.64-2.68-7.39-6.05-8.23-9.53C164,384.28,166.71,380.91,171.35,378.23Z" style="opacity:0.35000000000000003"></path><path d="M210.24,390.48c0-.56,0-2.87,0-3.47,0-1.42-1-2.8-3.11-4l-.07-.05c-3.91-2.26-7.94-2-11.54-1.06h0c-1.53.38-3,.88-4.3,1.34a45.78,45.78,0,0,1-4.62,1.43h0a8.29,8.29,0,0,1-2.2.21,4.82,4.82,0,0,1-1.82-.48l.15-.1.45-.29a11.45,11.45,0,0,1,1.22-.6,8.46,8.46,0,0,1,6.47-.15l3.73-3.76V376a17.63,17.63,0,0,0-10.2-.37,20.76,20.76,0,0,0-3.24,1.12l-3.73-2.15-4.45,2.57v3.45l1.52.88a3.73,3.73,0,0,0-.65,2c0,.58,0,2.87,0,3.45,0,1.42,1,2.8,3.17,4a13.09,13.09,0,0,0,6.15,1.77h0q.62,0,1.23,0a23.94,23.94,0,0,0,6.6-1.43c.44-.14.87-.29,1.29-.44l-3.76,3.77v3.45a18.37,18.37,0,0,0,14.39-.62l3.68,2.12,4.45-2.57v-3.45l-1.53-.88A4.07,4.07,0,0,0,210.24,390.48Zm-9.39-.29a9.83,9.83,0,0,1-1,.51,9.56,9.56,0,0,1-7.28.11c3.48-1.23,6.39-2.3,8.88-1C201.24,390,201.06,390.07,200.85,390.19Z" style="fill:#BBDBF7"></path><path d="M195.52,381.86h0c-1.53.38-3,.88-4.3,1.34a45.78,45.78,0,0,1-4.62,1.43h0a8.29,8.29,0,0,1-2.2.21,4.83,4.83,0,0,1-2.11-.63c-1.44-.83-1.64-2,.44-3.41l.45-.28a10.56,10.56,0,0,1,1.22-.6,8.41,8.41,0,0,1,6.47-.15l3.73-3.76a17.63,17.63,0,0,0-10.2-.37,20.76,20.76,0,0,0-3.24,1.12l-3.73-2.15-4.45,2.57,3.69,2.12a.07.07,0,0,1,0,0c-3.74,2.85-3.82,5.79.39,8.23a13.07,13.07,0,0,0,6.15,1.76h0c.41,0,.83,0,1.23,0a24.31,24.31,0,0,0,6.6-1.43c4.28-1.43,7.74-3.11,10.61-1.45,1.93,1.12,1.4,2.51-.72,3.74a9.83,9.83,0,0,1-1,.51,9.61,9.61,0,0,1-7.42.06l-3.91,3.92a18.32,18.32,0,0,0,14.39-.63l3.68,2.13,4.45-2.57-3.68-2.13c3.7-2.86,4.13-6-.2-8.51l-.07-.05C203.15,380.66,199.12,381,195.52,381.86Z" style="fill:#BBDBF7"></path><g style="opacity:0.30000000000000004"><path d="M195.52,381.86h0c-1.53.38-3,.88-4.3,1.34a45.78,45.78,0,0,1-4.62,1.43h0a8.29,8.29,0,0,1-2.2.21,4.83,4.83,0,0,1-2.11-.63c-1.44-.83-1.64-2,.44-3.41l.45-.28a10.56,10.56,0,0,1,1.22-.6,8.41,8.41,0,0,1,6.47-.15l3.73-3.76a17.63,17.63,0,0,0-10.2-.37,20.76,20.76,0,0,0-3.24,1.12l-3.73-2.15-4.45,2.57,3.69,2.12a.07.07,0,0,1,0,0c-3.74,2.85-3.82,5.79.39,8.23a13.07,13.07,0,0,0,6.15,1.76h0c.41,0,.83,0,1.23,0a24.31,24.31,0,0,0,6.6-1.43c4.28-1.43,7.74-3.11,10.61-1.45,1.93,1.12,1.4,2.51-.72,3.74a9.83,9.83,0,0,1-1,.51,9.61,9.61,0,0,1-7.42.06l-3.91,3.92a18.32,18.32,0,0,0,14.39-.63l3.68,2.13,4.45-2.57-3.68-2.13c3.7-2.86,4.13-6-.2-8.51l-.07-.05C203.15,380.66,199.12,381,195.52,381.86Z" style="fill:#fff"></path></g><polygon points="172.94 377.19 177.44 375.15 181.12 376.77 177.39 374.62 172.94 377.19" style="fill:#f5f5f5;opacity:0.45"></polygon><path d="M183.85,375.79a20.78,20.78,0,0,1,9.56.32l-2.58,3.67,3.73-3.76A17.72,17.72,0,0,0,183.85,375.79Z" style="fill:#f5f5f5;opacity:0.45"></path><path d="M207.06,382.92l.07.05c4.33,2.53,3.9,5.65.2,8.51,3.28-3.57,2.69-6.06-.88-8.12s-8.11-2-10.93-1.5C199.12,381,203.15,380.66,207.06,382.92Z" style="fill:#f5f5f5;opacity:0.45"></path><polygon points="207.33 391.48 210.15 393.65 206.56 396.18 211.01 393.61 207.33 391.48" style="fill:#f5f5f5;opacity:0.45"></polygon><path d="M199.82,390.7a9.56,9.56,0,0,1-7.1.62l-4.23,3.36,3.91-3.92A9.61,9.61,0,0,0,199.82,390.7Z" style="fill:#f5f5f5;opacity:0.45"></path><path d="M186.56,384.64c-1.68.66-4.11.55-5.33-.51s-.46-2.29,1.46-3.32c-2.08,1.37-1.88,2.58-.44,3.41a4.83,4.83,0,0,0,2.11.63A8.29,8.29,0,0,0,186.56,384.64Z" style="fill:#f5f5f5;opacity:0.45"></path><path d="M176.59,379.34c-.31.28-3,2.78-1.81,5.28,1.26,2.66,5.18,4.37,8.35,4.71h0a13.07,13.07,0,0,1-6.15-1.76C172.77,385.13,172.85,382.19,176.59,379.34Z" style="fill:#f5f5f5;opacity:0.45"></path></g><g id="freepik--coin--inject-4"><path d="M153.74,371.44a28.31,28.31,0,0,1,10.5-9.7c17.16-9.91,45-9.91,62.14,0a28.31,28.31,0,0,1,10.5,9.7h2.37v9h0c-.31,6.24-4.59,12.43-12.84,17.2-17.16,9.9-45,9.9-62.14,0-8.25-4.77-12.56-11-12.87-17.2h0v-9Z" style="fill:#BBDBF7"></path><path d="M153.74,371.44a28.31,28.31,0,0,1,10.5-9.7c17.16-9.91,45-9.91,62.14,0a28.31,28.31,0,0,1,10.5,9.7h2.37v9h0c-.31,6.24-4.59,12.43-12.84,17.2-17.16,9.9-45,9.9-62.14,0-8.25-4.77-12.56-11-12.87-17.2h0v-9Z" style="opacity:0.25"></path><path d="M195.31,354.3c11.24,0,22.49,2.48,31.07,7.44a28.31,28.31,0,0,1,10.5,9.7h2.37v9h0c-.31,6.24-4.59,12.43-12.84,17.2-8.58,4.95-19.83,7.43-31.07,7.43Z" style="opacity:0.1"></path><path d="M219.31,358.42a48.32,48.32,0,0,1,7.07,3.32,28.31,28.31,0,0,1,10.5,9.7h2.37v9h0c-.31,6.24-4.59,12.43-12.84,17.2a49.35,49.35,0,0,1-7.07,3.31Z" style="opacity:0.1"></path><path d="M171.31,358.42a48.32,48.32,0,0,0-7.07,3.32,28.31,28.31,0,0,0-10.5,9.7h-2.37v9h0c.31,6.24,4.62,12.43,12.87,17.2a49.35,49.35,0,0,0,7.07,3.31Z" style="fill:#BBDBF7;opacity:0.5"></path><path d="M226.38,353.51c17.17,9.9,17.16,26,0,35.88-15,8.67-38.19,9.75-55.25,3.25h0l-.68-.27a48.09,48.09,0,0,1-6.21-3c-14.31-8.27-16.69-20.81-7.13-30.49h0a33.49,33.49,0,0,1,7.13-5.38C181.4,343.6,209.22,343.6,226.38,353.51Z" style="fill:#BBDBF7"></path><path d="M226.38,353.51c17.17,9.9,17.16,26,0,35.88-15,8.67-38.19,9.75-55.25,3.25h0l-.68-.27a48.09,48.09,0,0,1-6.21-3c-14.31-8.27-16.69-20.81-7.13-30.49h0a33.49,33.49,0,0,1,7.13-5.38C181.4,343.6,209.22,343.6,226.38,353.51Z" style="opacity:0.2"></path><path d="M157.11,358.9a19.19,19.19,0,0,0-4.6,15.65c1.52,8.72,13.73,16.06,17.94,17.82a48.09,48.09,0,0,1-6.21-3C149.93,381.12,147.55,368.58,157.11,358.9Z" style="fill:#f5f5f5;opacity:0.5"></path><path d="M233.51,384a19.2,19.2,0,0,0,4.6-15.66c-1.52-8.72-13.73-16-17.94-17.82a46.85,46.85,0,0,1,6.21,3C240.69,361.77,243.07,374.31,233.51,384Z" style="fill:#f5f5f5;opacity:0.5"></path><ellipse cx="195.33" cy="371.41" rx="40.85" ry="23.58" style="fill:#BBDBF7"></ellipse><ellipse cx="195.33" cy="371.41" rx="40.85" ry="23.58" style="fill:#fff;opacity:0.4"></ellipse><path d="M156.33,378.46c-3.28-6.07-2.21-12.76,3.21-18.44a27.37,27.37,0,0,1,3.46-3,35.13,35.13,0,0,1,3.31-2.18c.65-.38,1.32-.74,2-1.09-1.7,2.79-1.08,5.79,8.55,6.35,18.82,1.1-5,19.09-5,19.09S159.7,373.3,156.33,378.46Z" style="fill:#fff;opacity:0.2"></path><path d="M158.28,373.48c-2.83-.32-4.23-3.22-3.13-6.49s4.28-5.66,7.1-5.35,4.23,3.23,3.13,6.49S161.1,373.8,158.28,373.48Z" style="fill:#fff;opacity:0.5"></path><path d="M188.06,388.47c.92-7,31.48-26.34,31.48-26.34s6.78-2.72,4.53-7.46a34.12,34.12,0,0,1,3.27,2.11c.71.51,1.37,1,2,1.57,9.09,7.88,9.11,18.23,0,26.12-.61.54-1.28,1.06-2,1.57a35.25,35.25,0,0,1-3,2c-1,.6-2.12,1.17-3.24,1.69-.89.42-1.81.82-2.75,1.19s-1.89.71-2.87,1a60.56,60.56,0,0,1-9.11,2.19c-.68.11-1.37.21-2.06.3a69,69,0,0,1-9.11.57,70,70,0,0,1-11.16-.91S188.93,393.07,188.06,388.47Z" style="fill:#BBDBF7"></path><path d="M188.06,388.47c.92-7,31.48-26.34,31.48-26.34s6.78-2.72,4.53-7.46a34.12,34.12,0,0,1,3.27,2.11c.71.51,1.37,1,2,1.57,9.09,7.88,9.11,18.23,0,26.12-.61.54-1.28,1.06-2,1.57a35.25,35.25,0,0,1-3,2c-1,.6-2.12,1.17-3.24,1.69-.89.42-1.81.82-2.75,1.19s-1.89.71-2.87,1a60.56,60.56,0,0,1-9.11,2.19c-.68.11-1.37.21-2.06.3a69,69,0,0,1-9.11.57,70,70,0,0,1-11.16-.91S188.93,393.07,188.06,388.47Z" style="fill:#fff;opacity:0.30000000000000004"></path><path d="M216.86,359c11.4,6.58,11.86,17.08,1.39,24-.44.3-.91.59-1.39.87-11.89,6.86-31.15,6.86-43,0s-11.89-18,0-24.85c.48-.28,1-.55,1.49-.81C187.27,352.14,205.46,352.41,216.86,359Z" style="fill:#BBDBF7"></path><path d="M216.86,359c11.4,6.58,11.86,17.08,1.39,24-.44.3-.91.59-1.39.87-11.89,6.86-31.15,6.86-43,0s-11.89-18,0-24.85c.48-.28,1-.55,1.49-.81C187.27,352.14,205.46,352.41,216.86,359Z" style="opacity:0.2"></path><path d="M215.89,359.54c11.36,6.55,11.36,17.19,0,23.75s-29.77,6.56-41.13,0-11.36-17.2,0-23.75S204.53,353,215.89,359.54Z" style="fill:#BBDBF7"></path><path d="M215.89,359.54c11.36,6.55,11.36,17.19,0,23.75s-29.77,6.56-41.13,0-11.36-17.2,0-23.75S204.53,353,215.89,359.54Z" style="opacity:0.5"></path><path d="M215.89,364.22c-11.36-6.56-29.77-6.56-41.13,0-4.65,2.68-7.39,6-8.24,9.53.85,3.49,3.59,6.85,8.24,9.54,11.36,6.56,29.77,6.56,41.13,0,4.65-2.69,7.39-6.05,8.24-9.54C223.28,370.27,220.54,366.9,215.89,364.22Z" style="fill:#BBDBF7"></path><path d="M215.89,364.22c-11.36-6.56-29.77-6.56-41.13,0-4.65,2.68-7.39,6-8.24,9.53.85,3.49,3.59,6.85,8.24,9.54,11.36,6.56,29.77,6.56,41.13,0,4.65-2.69,7.39-6.05,8.24-9.54C223.28,370.27,220.54,366.9,215.89,364.22Z" style="opacity:0.35000000000000003"></path><path d="M213.64,376.47c0-.57,0-2.88,0-3.47,0-1.43-1-2.81-3.11-4.05l-.07,0c-3.91-2.26-7.94-2-11.54-1.06h0c-1.53.38-3,.88-4.31,1.33a39.89,39.89,0,0,1-4.62,1.43h0a8.33,8.33,0,0,1-2.2.21,4.66,4.66,0,0,1-1.82-.49l.15-.1.45-.28a9.82,9.82,0,0,1,1.22-.6,8.41,8.41,0,0,1,6.47-.15l3.73-3.76V362a17.8,17.8,0,0,0-10.2-.37,20.46,20.46,0,0,0-3.24,1.13l-3.73-2.16-4.45,2.57v3.45l1.52.88a3.79,3.79,0,0,0-.65,2V373c0,1.43,1,2.8,3.17,4a13,13,0,0,0,6.15,1.77h0c.41,0,.82,0,1.23,0a24.31,24.31,0,0,0,6.6-1.43c.44-.14.87-.29,1.29-.44l-3.76,3.76v3.46a18.32,18.32,0,0,0,14.39-.63l3.68,2.13,4.45-2.57V379.6l-1.53-.89A4,4,0,0,0,213.64,376.47Zm-9.38-.3a9.17,9.17,0,0,1-1,.52,9.58,9.58,0,0,1-7.27.11c3.48-1.23,6.39-2.31,8.87-1C204.65,375.93,204.46,376.05,204.26,376.17Z" style="fill:#BBDBF7"></path><path d="M198.93,367.85h0c-1.53.38-3,.88-4.31,1.33a39.89,39.89,0,0,1-4.62,1.43h0a8.33,8.33,0,0,1-2.2.21,4.79,4.79,0,0,1-2.12-.64c-1.43-.82-1.64-2,.45-3.4a4.92,4.92,0,0,1,.45-.28,9.91,9.91,0,0,1,1.22-.61,8.41,8.41,0,0,1,6.47-.14L198,362a17.8,17.8,0,0,0-10.2-.37,20.46,20.46,0,0,0-3.24,1.13l-3.73-2.16-4.45,2.57L180,365.3l0,0c-3.74,2.84-3.82,5.79.39,8.22a13,13,0,0,0,6.15,1.77h0c.41,0,.82,0,1.23,0a24.3,24.3,0,0,0,6.6-1.42c4.27-1.43,7.73-3.11,10.61-1.45,1.93,1.11,1.39,2.51-.72,3.73a10,10,0,0,1-1,.52,9.56,9.56,0,0,1-7.42.05l-3.91,3.92a18.28,18.28,0,0,0,14.39-.62l3.68,2.13,4.45-2.57-3.68-2.13c3.7-2.87,4.13-6-.2-8.52l-.07,0C206.56,366.65,202.53,367,198.93,367.85Z" style="fill:#BBDBF7"></path><g style="opacity:0.30000000000000004"><path d="M198.93,367.85h0c-1.53.38-3,.88-4.31,1.33a39.89,39.89,0,0,1-4.62,1.43h0a8.33,8.33,0,0,1-2.2.21,4.79,4.79,0,0,1-2.12-.64c-1.43-.82-1.64-2,.45-3.4a4.92,4.92,0,0,1,.45-.28,9.91,9.91,0,0,1,1.22-.61,8.41,8.41,0,0,1,6.47-.14L198,362a17.8,17.8,0,0,0-10.2-.37,20.46,20.46,0,0,0-3.24,1.13l-3.73-2.16-4.45,2.57L180,365.3l0,0c-3.74,2.84-3.82,5.79.39,8.22a13,13,0,0,0,6.15,1.77h0c.41,0,.82,0,1.23,0a24.3,24.3,0,0,0,6.6-1.42c4.27-1.43,7.73-3.11,10.61-1.45,1.93,1.11,1.39,2.51-.72,3.73a10,10,0,0,1-1,.52,9.56,9.56,0,0,1-7.42.05l-3.91,3.92a18.28,18.28,0,0,0,14.39-.62l3.68,2.13,4.45-2.57-3.68-2.13c3.7-2.87,4.13-6-.2-8.52l-.07,0C206.56,366.65,202.53,367,198.93,367.85Z" style="fill:#fff"></path></g><polygon points="176.35 363.17 180.84 361.14 184.53 362.76 180.8 360.6 176.35 363.17" style="fill:#f5f5f5;opacity:0.45"></polygon><path d="M187.25,361.77a20.84,20.84,0,0,1,9.57.33l-2.58,3.67L198,362A17.83,17.83,0,0,0,187.25,361.77Z" style="fill:#f5f5f5;opacity:0.45"></path><path d="M210.47,368.91l.07,0c4.33,2.54,3.9,5.65.2,8.52,3.28-3.57,2.69-6.07-.88-8.12s-8.11-2-10.93-1.5C202.53,367,206.56,366.65,210.47,368.91Z" style="fill:#f5f5f5;opacity:0.45"></path><polygon points="210.74 377.47 213.56 379.64 209.97 382.17 214.42 379.6 210.74 377.47" style="fill:#f5f5f5;opacity:0.45"></polygon><path d="M203.23,376.69a9.62,9.62,0,0,1-7.1.62l-4.23,3.35,3.91-3.92A9.56,9.56,0,0,0,203.23,376.69Z" style="fill:#f5f5f5;opacity:0.45"></path><path d="M190,370.63c-1.69.66-4.11.55-5.33-.51s-.46-2.29,1.46-3.32c-2.09,1.37-1.88,2.58-.45,3.4a4.79,4.79,0,0,0,2.12.64A8.33,8.33,0,0,0,190,370.63Z" style="fill:#f5f5f5;opacity:0.45"></path><path d="M180,365.33c-.31.28-3,2.78-1.81,5.27,1.25,2.67,5.18,4.38,8.35,4.72h0a13,13,0,0,1-6.15-1.77C176.18,371.12,176.26,368.17,180,365.33Z" style="fill:#f5f5f5;opacity:0.45"></path><polygon points="156.5 366.98 157.61 358.57 158.71 366.98 173.27 367.62 158.71 368.25 157.61 376.66 156.5 368.25 141.94 367.62 156.5 366.98" style="fill:#fff"></polygon></g></g></g></svg>
